<mxfile host="app.diagrams.net" modified="2024-03-02T13:45:33.900Z" agent="Mozilla/5.0 (Windows NT 10.0; Win64; x64) AppleWebKit/537.36 (KHTML, like Gecko) Chrome/120.0.0.0 Safari/537.36" version="23.1.5" etag="hchnD5GWJTXlspghh1rM" type="github">
  <diagram name="Page-1" id="rZSUiYl2JP-H0n1Ok_1t">
    <mxGraphModel>
      <root>
        <mxCell id="0" />
        <mxCell id="1" parent="0" />
      </root>
    </mxGraphModel>
  </diagram>
</mxfile>
